<?xml version="1.0" encoding="utf-8"?>
<!-- Generator: Adobe Illustrator 27.9.0, SVG Export Plug-In . SVG Version: 6.00 Build 0)  -->
<svg version="1.1" id="Layer_1" xmlns="http://www.w3.org/2000/svg" xmlns:xlink="http://www.w3.org/1999/xlink" x="0px" y="0px"
	 viewBox="0 0 468 468" style="enable-background:new 0 0 468 468;" xml:space="preserve">
<style type="text/css">
	.st0{display:none;fill:none;stroke:#FF1A66;stroke-width:5;stroke-linecap:round;stroke-linejoin:round;stroke-miterlimit:10;}
	.st1{display:none;}
	.st2{stroke:#000000;stroke-width:8;stroke-linecap:round;stroke-linejoin:round;stroke-miterlimit:10;}
	.st3{fill:none;stroke:#000000;stroke-width:12;stroke-linecap:round;stroke-linejoin:round;stroke-miterlimit:10;}
	.st4{stroke:#000000;stroke-width:2;stroke-linejoin:round;stroke-miterlimit:10;}
	.st5{display:inline;fill:none;}
	.st6{display:inline;}
	.st7{font-family:'CourierNewPSMT';}
	.st8{font-size:48px;}
</style>
<g id="Layer_4">
	<rect x="0.5" y="0.5" class="st0" width="468" height="468"/>
</g>
<g id="sketch" class="st1">
</g>
<g id="Layer_2_00000085966872271143035470000008891804128884154559_">
	<path class="st2" d="M430.5,365.5l-225-58l-164,83l214.01,55.66c5.79,1.51,11.94,0.86,17.29-1.82L430.5,365.5z"/>
	<path class="st3" d="M207,308L44.15,388.69c-1.22,0.6-2.65-0.28-2.65-1.65V172.5l165.5-82V308z"/>
	<polygon class="st4" points="91.2,310.54 59.37,326.31 59.37,284.48 91.2,268.71 	"/>
	<polygon class="st4" points="179.46,236.8 147.63,252.57 147.63,210.74 179.46,194.97 	"/>
	<polygon class="st4" points="135,270.12 103.63,286.58 103.63,204.42 135,187.96 	"/>
	<path class="st3" d="M427.3,364.32L207,309V90l223,56v216.22C430,363.63,428.67,364.67,427.3,364.32z"/>
	<polygon class="st4" points="343.01,256.87 305.19,247.64 305.19,205.81 343.01,215.04 	"/>
	<path class="st4" d="M284.01,290.15l-37.83-7.78v-73.84c0,0-0.33-16.71,19.81-13.53c19,3,18.01,21.31,18.01,21.31L284.01,290.15
		L284.01,290.15z"/>
	<polygon class="st4" points="402.51,271.65 364.69,261.88 364.69,175.03 402.51,184.81 	"/>
	<path class="st3" d="M207,90c-1.43-0.5-148,15.5-148,15.5l0.5,58"/>
	<polyline class="st3" points="208,89 81,48.5 81,102 	"/>
</g>
<g id="Layer_3" class="st1">
	<rect x="62.81" y="280.76" class="st5" width="35.19" height="40.24"/>
	<text transform="matrix(1 0 0 1 62.812 310.1846)" class="st6 st7 st8">a</text>
	<rect x="105.06" y="228" class="st5" width="35.19" height="76.36"/>
	<text transform="matrix(1 0 0 1 105.0586 257.4238)" class="st6 st7 st8">b</text>
	<rect x="146.06" y="207.12" class="st5" width="35.19" height="40.24"/>
	<text transform="matrix(1 0 0 1 146.0586 236.543)" class="st6 st7 st8">c</text>
	<rect x="252.2" y="224.12" class="st5" width="35.19" height="40.24"/>
	<text transform="matrix(1 0 0 1 252.1953 253.543)" class="st6 st7 st8">p</text>
	<rect x="314.2" y="227.12" class="st5" width="35.19" height="40.24"/>
	<text transform="matrix(1 0 0 1 314.1953 256.543)" class="st6 st7 st8">v</text>
	<rect x="367.2" y="224.12" class="st5" width="35.19" height="40.24"/>
	<text transform="matrix(1 0 0 1 367.1953 253.543)" class="st6 st7 st8">d</text>
</g>
</svg>
